<?xml version="1.0" encoding="UTF-8" standalone="no"?>
<!DOCTYPE svg PUBLIC "-//W3C//DTD SVG 1.1//EN" "http://www.w3.org/Graphics/SVG/1.1/DTD/svg11.dtd">
<svg version="1.1" xmlns="http://www.w3.org/2000/svg" xmlns:xlink="http://www.w3.org/1999/xlink" preserveAspectRatio="xMidYMid meet" viewBox="0 0 640 640" width="256" height="256"><defs><path d="M253.38 514.38L253.38 298.73L386.62 298.73L386.62 514.38L253.38 514.38Z" id="b26su2PdzN"></path><path d="M336.84 1.13L345.23 2.34L353.58 4.02L361.88 6.15L370.12 8.73L378.3 11.73L386.41 15.16L394.43 19L402.36 23.23L410.19 27.85L417.91 32.85L425.51 38.21L432.97 43.92L440.3 49.98L447.48 56.36L454.5 63.06L461.36 70.07L468.04 77.38L474.53 84.97L480.83 92.84L486.93 100.96L492.81 109.34L498.47 117.96L503.9 126.8L509.09 135.86L514.03 145.13L518.7 154.59L523.11 164.24L527.25 174.05L531.09 184.03L534.64 194.16L537.88 204.42L540.81 214.81L543.42 225.32L545.69 235.93L547.61 246.63L549.19 257.41L550.41 268.26L551.25 279.17L551.55 290.07L551.15 300.88L550.09 311.59L548.39 322.19L546.08 332.68L543.2 343.04L539.78 353.26L535.84 363.34L531.42 373.26L526.54 383.01L521.24 392.59L515.55 401.98L509.5 411.18L503.12 420.17L496.43 428.95L489.47 437.5L482.27 445.82L474.86 453.89L467.27 461.72L459.53 469.27L451.67 476.56L443.72 483.56L435.72 490.26L427.68 496.67L419.65 502.76L411.64 508.53L403.71 513.97L395.86 519.06L388.14 523.81L380.57 528.19L373.18 532.2L366.01 535.83L359.08 539.07L352.43 541.91L346.09 544.34L340.08 546.35L334.43 547.93L329.18 549.08L324.36 549.77L320 550L315.64 549.77L310.82 549.08L305.57 547.93L299.92 546.35L293.91 544.34L287.57 541.91L280.92 539.07L273.99 535.83L266.82 532.2L259.43 528.19L251.86 523.81L244.14 519.06L236.29 513.97L228.36 508.53L220.35 502.76L212.32 496.67L204.28 490.26L196.28 483.56L188.33 476.56L180.47 469.27L172.73 461.72L165.14 453.89L157.73 445.82L150.53 437.5L143.57 428.95L136.88 420.17L130.5 411.18L124.45 401.98L118.76 392.59L113.46 383.01L108.58 373.26L104.16 363.34L100.22 353.26L96.8 343.04L93.92 332.68L91.61 322.19L89.91 311.59L88.85 300.88L88.45 290.07L88.75 279.17L89.59 268.26L90.81 257.41L92.39 246.63L94.31 235.93L96.58 225.32L99.19 214.81L102.12 204.42L105.36 194.16L108.91 184.03L112.75 174.05L116.89 164.24L121.3 154.59L125.97 145.13L130.91 135.86L136.1 126.8L141.53 117.96L147.19 109.34L153.07 100.96L159.17 92.84L165.47 84.97L171.96 77.38L178.64 70.07L185.5 63.06L192.52 56.36L199.7 49.98L207.03 43.92L214.49 38.21L222.09 32.85L229.81 27.85L237.64 23.23L245.57 19L253.59 15.16L261.7 11.73L269.88 8.73L278.12 6.15L286.42 4.02L294.77 2.34L303.16 1.13L311.57 0.39L320 0.14L328.43 0.39L336.84 1.13Z" id="afvQkuHp"></path><path d="M333.34 76.42L339.91 77.09L346.39 78.01L352.79 79.19L359.09 80.61L365.31 82.28L371.42 84.18L377.43 86.31L383.32 88.67L389.1 91.25L394.76 94.04L400.29 97.05L405.69 100.26L410.96 103.67L416.08 107.27L421.05 111.06L425.87 115.04L430.53 119.2L435.03 123.53L439.36 128.03L443.52 132.69L447.5 137.51L451.29 142.49L454.9 147.61L458.31 152.87L461.52 158.27L464.52 163.8L467.32 169.46L469.9 175.24L472.26 181.14L474.39 187.14L476.29 193.26L477.95 199.47L479.38 205.78L480.55 212.18L481.48 218.66L482.14 225.22L482.54 231.86L482.68 238.56L482.54 245.27L482.14 251.91L481.48 258.47L480.55 264.95L479.38 271.35L477.95 277.66L476.29 283.87L474.39 289.99L472.26 295.99L469.9 301.89L467.32 307.67L464.52 313.33L461.52 318.86L458.31 324.26L454.9 329.52L451.29 334.64L447.5 339.62L443.52 344.44L439.36 349.1L435.03 353.6L430.53 357.93L425.87 362.09L421.05 366.06L416.08 369.86L410.96 373.46L405.69 376.87L400.29 380.08L394.76 383.09L389.1 385.88L383.32 388.46L377.43 390.82L371.42 392.95L365.31 394.85L359.09 396.52L352.79 397.94L346.39 399.12L339.91 400.04L333.34 400.71L326.71 401.11L320 401.25L313.29 401.11L306.66 400.71L300.09 400.04L293.61 399.12L287.21 397.94L280.91 396.52L274.69 394.85L268.58 392.95L262.57 390.82L256.68 388.46L250.9 385.88L245.24 383.09L239.71 380.08L234.31 376.87L229.04 373.46L223.92 369.86L218.95 366.06L214.13 362.09L209.47 357.93L204.97 353.6L200.64 349.1L196.48 344.44L192.5 339.62L188.71 334.64L185.1 329.52L181.69 324.26L178.48 318.86L175.48 313.33L172.68 307.67L170.1 301.89L167.74 295.99L165.61 289.99L163.71 283.87L162.05 277.66L160.62 271.35L159.45 264.95L158.52 258.47L157.86 251.91L157.46 245.27L157.32 238.56L157.46 231.86L157.86 225.22L158.52 218.66L159.45 212.18L160.62 205.78L162.05 199.47L163.71 193.26L165.61 187.14L167.74 181.14L170.1 175.24L172.68 169.46L175.48 163.8L178.48 158.27L181.69 152.87L185.1 147.61L188.71 142.49L192.5 137.51L196.48 132.69L200.64 128.03L204.97 123.53L209.47 119.2L214.13 115.04L218.95 111.06L223.92 107.27L229.04 103.67L234.31 100.26L239.71 97.05L245.24 94.04L250.9 91.25L256.68 88.67L262.57 86.31L268.58 84.18L274.69 82.28L280.91 80.61L287.21 79.19L293.61 78.01L300.09 77.09L306.66 76.42L313.29 76.02L320 75.88L326.71 76.02L333.34 76.42Z" id="a1eBOmkZhe"></path><path d="M470.65 452.52L474.04 452.67L477.4 452.93L480.74 453.29L484.05 453.74L487.33 454.29L490.57 454.94L493.78 455.68L496.96 456.52L500.1 457.44L503.2 458.46L506.26 459.56L509.28 460.76L512.26 462.03L515.19 463.39L518.08 464.84L520.91 466.36L523.7 467.97L526.44 469.65L529.13 471.41L531.76 473.25L534.33 475.16L536.85 477.14L539.31 479.2L541.7 481.32L544.04 483.51L546.31 485.77L548.52 488.1L550.66 490.48L552.73 492.94L554.73 495.45L556.66 498.02L558.52 500.65L560.3 503.34L562.01 506.08L563.63 508.87L565.18 511.72L566.65 514.62L568.03 517.57L569.33 520.57L564.87 525.98L560.3 531.29L555.61 536.5L550.82 541.61L545.91 546.61L540.9 551.5L535.78 556.28L530.55 560.95L525.23 565.51L519.8 569.95L514.28 574.27L508.66 578.48L502.94 582.56L497.14 586.52L491.24 590.36L485.25 594.07L479.18 597.65L473.03 601.09L466.79 604.41L460.47 607.59L454.07 610.64L447.59 613.54L441.04 616.31L434.41 618.93L427.72 621.41L420.95 623.75L414.12 625.93L407.22 627.97L400.26 629.85L393.23 631.58L386.15 633.15L379 634.57L371.8 635.83L364.55 636.92L357.25 637.85L349.89 638.62L342.49 639.22L335.03 639.65L327.54 639.91L320 640L312.46 639.91L304.97 639.65L297.51 639.22L290.11 638.62L282.75 637.85L275.45 636.92L268.2 635.83L261 634.57L253.85 633.15L246.77 631.58L239.74 629.85L232.78 627.97L225.88 625.93L219.05 623.74L212.28 621.41L205.59 618.93L198.96 616.31L192.41 613.54L185.93 610.64L179.53 607.59L173.21 604.41L166.97 601.09L160.82 597.64L154.75 594.07L148.76 590.36L142.86 586.52L137.06 582.56L131.34 578.48L125.72 574.27L120.2 569.95L114.77 565.51L109.45 560.95L104.22 556.28L99.1 551.5L94.09 546.6L89.18 541.6L84.39 536.5L79.7 531.29L75.13 525.97L70.67 520.56L71.97 517.56L73.35 514.62L74.82 511.72L76.37 508.87L77.99 506.07L79.7 503.33L81.48 500.65L83.34 498.02L85.27 495.45L87.27 492.93L89.34 490.48L91.48 488.09L93.68 485.77L95.96 483.51L98.29 481.32L100.69 479.2L103.15 477.14L105.67 475.16L108.24 473.25L110.87 471.41L113.56 469.65L116.3 467.97L119.08 466.36L121.92 464.84L124.81 463.39L127.74 462.03L130.72 460.76L133.74 459.56L136.8 458.46L139.9 457.44L143.04 456.52L146.22 455.68L149.43 454.94L152.67 454.29L155.95 453.74L159.26 453.29L162.6 452.93L165.96 452.67L169.35 452.52L172.76 452.47L467.24 452.47L470.65 452.52Z" id="epnffUfvM"></path><path d="M320.02 0L320.16 0L320.31 0L320.46 0L320.61 0L320.75 0L320.9 0.01L321.05 0.01L321.2 0.01L321.34 0.01L321.49 0.01L321.64 0.01L321.79 0.02L321.93 0.02L322.08 0.02L322.23 0.03L322.38 0.03L322.52 0.03L322.67 0.03L322.82 0.04L322.97 0.04L323.11 0.05L323.26 0.05L323.41 0.05L323.56 0.06L323.7 0.06L323.85 0.07L324 0.07L324.15 0.08L324.29 0.08L324.44 0.09L324.59 0.09L324.73 0.1L324.88 0.1L325.03 0.11L325.18 0.11L325.32 0.12L325.47 0.13L325.62 0.13L325.66 0.13L325.69 0.13L325.73 0.14L325.77 0.14L325.8 0.14L325.84 0.14L325.87 0.14L325.91 0.15L325.95 0.15L325.98 0.15L326.02 0.15L326.06 0.15L326.09 0.15L326.13 0.16L326.16 0.16L326.24 0.16L326.31 0.17L326.35 0.17L326.42 0.17L326.6 0.18L326.67 0.19L326.74 0.19L326.82 0.2L326.85 0.2L326.89 0.2L326.93 0.2L326.96 0.2L327 0.21L327.03 0.21L327.07 0.21L327.19 0.22L327.3 0.22L327.42 0.23L327.53 0.24L327.65 0.24L327.76 0.25L327.88 0.25L328 0.26L328.11 0.27L328.23 0.27L328.34 0.28L328.46 0.29L328.57 0.29L328.69 0.3L328.81 0.31L328.92 0.32L329.04 0.32L329.15 0.33L329.27 0.34L329.38 0.35L329.5 0.35L329.62 0.36L329.73 0.37L329.85 0.38L329.96 0.38L330.08 0.39L330.19 0.4L330.31 0.41L330.42 0.42L330.54 0.43L330.66 0.43L330.77 0.44L330.89 0.45L331 0.46L331.12 0.47L331.23 0.48L331.35 0.49L331.46 0.5L331.58 0.51L331.69 0.52L331.74 0.52L331.78 0.52L331.82 0.53L331.86 0.53L331.9 0.53L331.94 0.54L331.99 0.54L332.03 0.55L332.07 0.55L332.11 0.55L332.15 0.56L332.19 0.56L332.24 0.56L332.28 0.57L332.32 0.57L332.36 0.58L332.4 0.58L332.49 0.59L332.57 0.6L332.82 0.62L332.86 0.62L332.94 0.63L332.98 0.63L333.07 0.64L333.11 0.65L333.15 0.65L333.19 0.65L333.23 0.66L333.28 0.66L333.32 0.67L333.48 0.68L333.59 0.69L333.71 0.7L333.83 0.71L333.95 0.72L334.06 0.73L334.18 0.74L334.3 0.76L334.41 0.77L334.53 0.78L334.65 0.79L334.76 0.8L334.88 0.82L335 0.83L335.12 0.84L335.23 0.85L335.35 0.87L335.47 0.88L335.58 0.89L335.7 0.91L335.82 0.92L335.93 0.93L336.05 0.95L336.17 0.96L336.29 0.97L336.4 0.99L336.52 1L336.64 1.01L336.75 1.03L336.87 1.04L336.99 1.06L337.11 1.07L337.22 1.09L337.34 1.1L337.46 1.11L337.57 1.13L337.69 1.14L337.81 1.16L337.92 1.17L338.04 1.19L338.08 1.19L338.12 1.2L338.18 1.2L338.24 1.21L338.35 1.22L338.43 1.23L338.47 1.24L338.51 1.24L338.53 1.25L338.57 1.25L338.59 1.25L338.63 1.26L338.67 1.26L338.71 1.27L338.75 1.27L338.79 1.28L338.81 1.28L338.83 1.29L338.85 1.29L339 1.31L339.15 1.33L339.29 1.35L339.44 1.37L339.59 1.39L339.73 1.41L339.88 1.43L340.03 1.45L340.17 1.47L340.32 1.49L340.47 1.51L340.61 1.53L340.76 1.55L340.91 1.57L341.05 1.59L341.2 1.62L341.35 1.64L341.49 1.66L341.64 1.68L341.79 1.7L341.93 1.73L342.08 1.75L342.23 1.77L342.37 1.79L342.52 1.82L342.67 1.84L342.81 1.86L342.96 1.88L343.11 1.91L343.25 1.93L343.4 1.95L343.55 1.98L343.69 2L343.84 2.03L343.99 2.05L344.13 2.07L344.28 2.1L344.42 2.12L344.57 2.15L344.72 2.17L344.72 2.17L336.99 3.7L329.3 5.62L321.66 7.91L314.07 10.58L306.54 13.62L299.07 17.01L291.69 20.74L284.39 24.81L277.17 29.21L270.06 33.92L263.05 38.95L256.15 44.27L249.37 49.89L242.72 55.79L236.21 61.96L229.83 68.4L223.61 75.1L217.54 82.04L211.63 89.22L205.9 96.62L200.34 104.25L194.98 112.09L189.8 120.13L184.82 128.36L180.06 136.78L175.5 145.37L171.17 154.13L167.07 163.05L163.21 172.11L159.59 181.32L156.22 190.65L153.12 200.1L150.28 209.67L147.71 219.34L145.42 229.11L143.43 238.96L141.73 248.88L140.33 258.88L139.24 268.93L138.47 279.03L138.18 287.78L138.33 296.48L138.93 305.12L139.94 313.69L141.36 322.19L143.17 330.61L145.35 338.95L147.89 347.21L150.78 355.38L153.99 363.45L157.51 371.42L161.33 379.28L165.42 387.04L169.78 394.67L174.39 402.19L179.23 409.58L184.29 416.84L189.55 423.96L194.99 430.95L200.61 437.78L206.38 444.47L212.28 451L218.31 457.36L224.45 463.56L230.68 469.59L236.98 475.44L243.35 481.12L249.76 486.6L256.2 491.89L262.65 496.99L269.09 501.88L275.52 506.57L281.92 511.05L288.26 515.31L294.54 519.34L300.74 523.15L306.85 526.73L312.84 530.07L318.7 533.17L324.41 536.03L324.99 536.32L325.54 536.65L326.07 537L326.57 537.37L327.04 537.76L327.49 538.17L327.91 538.6L328.3 539.05L328.66 539.52L329 540L329.31 540.49L329.59 541L329.85 541.52L330.07 542.05L330.27 542.6L330.44 543.14L330.59 543.7L330.7 544.26L330.79 544.83L330.85 545.4L330.88 545.97L330.89 546.54L330.86 547.12L330.81 547.69L330.72 548.26L330.61 548.82L330.47 549.38L330.3 549.94L330.11 550.48L329.88 551.02L329.62 551.55L329.34 552.07L329.02 552.57L328.68 553.06L328.3 553.54L327.9 554L327.46 554.45L327 554.87L326.51 555.28L325.98 555.66L324.51 556.7L323.01 557.79L321.48 558.92L319.92 560.1L318.34 561.33L316.75 562.61L315.13 563.93L313.5 565.31L311.86 566.73L310.21 568.2L308.56 569.73L306.9 571.3L305.24 572.92L303.59 574.59L301.94 576.31L300.3 578.08L298.67 579.9L297.05 581.78L295.45 583.7L293.88 585.67L292.32 587.7L290.79 589.78L289.29 591.9L287.82 594.08L286.38 596.31L284.98 598.6L283.62 600.93L282.31 603.32L281.03 605.76L279.81 608.25L278.64 610.8L277.52 613.4L276.46 616.05L275.45 618.76L274.51 621.52L273.64 624.33L272.83 627.2L272.1 630.12L271.44 633.09L270.85 636.12L264.82 635.14L258.82 634.04L252.86 632.84L246.95 631.52L241.07 630.09L235.24 628.56L229.46 626.92L223.71 625.18L218.02 623.33L212.37 621.38L206.77 619.32L201.22 617.17L195.72 614.92L190.27 612.56L184.87 610.11L179.53 607.57L174.24 604.93L169.01 602.19L163.84 599.36L158.73 596.44L153.67 593.43L148.67 590.33L143.74 587.14L138.87 583.86L134.06 580.5L129.32 577.05L124.65 573.51L120.04 569.9L115.5 566.2L111.03 562.42L106.63 558.56L102.3 554.62L98.05 550.61L93.86 546.52L89.76 542.35L85.73 538.11L81.77 533.79L77.9 529.41L74.11 524.95L70.39 520.42L71.6 517.62L72.89 514.85L74.25 512.13L75.69 509.45L77.19 506.82L78.76 504.23L80.4 501.7L82.1 499.21L83.87 496.77L85.71 494.38L87.6 492.05L89.56 489.77L91.58 487.55L93.65 485.38L95.79 483.27L97.97 481.22L100.22 479.22L102.51 477.29L104.86 475.42L107.26 473.62L109.71 471.88L112.2 470.2L114.75 468.6L117.33 467.06L119.97 465.59L122.64 464.19L125.36 462.86L128.11 461.6L130.91 460.42L133.74 459.32L136.61 458.29L139.52 457.34L142.45 456.46L145.42 455.67L148.43 454.96L151.46 454.33L154.52 453.78L157.6 453.32L160.72 452.95L163.85 452.66L160.53 449.07L157.25 445.43L154.01 441.74L150.81 438.01L147.67 434.22L144.57 430.39L141.52 426.52L138.53 422.6L135.6 418.64L132.73 414.63L129.93 410.59L127.19 406.5L124.52 402.37L121.92 398.21L119.4 394.01L116.95 389.76L114.59 385.49L112.3 381.17L110.1 376.82L107.99 372.44L105.98 368.03L104.05 363.58L102.22 359.1L100.49 354.59L98.86 350.06L97.34 345.49L95.92 340.89L94.61 336.27L93.42 331.63L92.34 326.95L91.38 322.26L90.54 317.54L89.82 312.79L89.23 308.03L88.76 303.24L88.43 298.44L88.23 293.61L88.17 288.77L88.25 283.91L88.47 279.03L89.32 268.12L90.53 257.27L92.11 246.49L94.04 235.78L96.31 225.17L98.91 214.67L101.84 204.28L105.08 194.02L108.63 183.89L112.48 173.91L116.61 164.1L121.02 154.45L125.7 144.99L130.63 135.72L135.82 126.66L141.25 117.81L146.91 109.2L152.79 100.82L158.89 92.69L165.19 84.83L171.68 77.24L178.36 69.93L185.22 62.92L192.24 56.22L199.42 49.84L206.75 43.78L214.22 38.07L221.81 32.71L229.53 27.71L237.36 23.09L245.29 18.86L253.31 15.02L261.42 11.59L269.6 8.58L277.84 6.01L286.15 3.88L294.49 2.2L302.88 0.98L311.29 0.25L319.72 0L319.87 0L320.02 0Z" id="b5LVxNTGJb"></path><path d="M334.37 60.24L341.43 60.96L348.41 61.95L355.29 63.22L362.08 64.75L368.77 66.54L375.34 68.59L381.81 70.88L388.15 73.42L394.37 76.2L400.46 79.2L406.42 82.44L412.23 85.89L417.89 89.56L423.4 93.44L428.75 97.52L433.94 101.81L438.96 106.28L443.8 110.94L448.46 115.78L452.94 120.8L457.22 125.99L461.3 131.34L465.18 136.85L468.85 142.52L472.3 148.33L475.54 154.28L478.54 160.37L481.32 166.59L483.86 172.94L486.15 179.4L488.2 185.98L489.99 192.66L491.52 199.45L492.79 206.34L493.78 213.32L494.5 220.38L494.93 227.52L495.08 234.74L495.06 237.46L495 240.17L494.89 242.88L494.75 245.57L494.56 248.25L494.34 250.92L494.07 253.58L493.77 256.23L493.43 258.86L493.05 261.49L492.62 264.1L492.17 266.69L491.67 269.28L491.13 271.85L490.56 274.4L489.95 276.95L489.31 279.47L488.62 281.99L487.9 284.48L487.15 286.96L486.36 289.43L485.53 291.88L484.67 294.32L483.78 296.73L482.85 299.13L481.88 301.52L480.89 303.88L479.85 306.23L478.79 308.56L477.69 310.87L476.56 313.16L475.4 315.44L474.21 317.69L472.98 319.93L471.72 322.14L470.43 324.34L469.11 326.51L467.77 328.66L466.39 330.79L464.98 332.91L464.75 333.22L464.53 333.53L464.29 333.84L464.05 334.14L463.8 334.43L463.55 334.71L463.29 334.99L463.02 335.26L462.75 335.52L462.47 335.78L462.19 336.03L461.9 336.27L461.6 336.51L461.3 336.74L461 336.96L460.69 337.17L460.37 337.38L460.05 337.57L459.73 337.76L459.4 337.94L459.06 338.12L458.73 338.28L458.39 338.44L458.04 338.59L457.69 338.73L457.34 338.86L456.99 338.99L456.63 339.1L456.27 339.21L455.9 339.31L455.53 339.4L455.16 339.48L454.79 339.55L454.42 339.61L454.04 339.66L453.66 339.7L453.28 339.74L452.9 339.76L452.51 339.78L452.12 339.78L408.55 339.78L407.92 339.79L407.29 339.83L406.67 339.89L406.06 339.98L405.45 340.09L404.85 340.23L404.27 340.39L403.69 340.57L403.12 340.77L402.56 340.99L402.01 341.23L401.48 341.5L400.95 341.78L400.44 342.09L399.94 342.41L399.46 342.75L398.99 343.11L398.53 343.49L398.09 343.88L397.66 344.29L397.25 344.72L396.86 345.16L396.48 345.61L396.13 346.09L395.78 346.57L395.46 347.07L395.16 347.58L394.87 348.1L394.61 348.64L394.36 349.19L394.14 349.74L393.94 350.31L393.76 350.89L393.6 351.48L393.47 352.08L393.36 352.68L393.27 353.3L393.21 353.92L393.17 354.55L393.15 355.18L393.15 402.07L393.14 402.71L393.1 403.33L393.04 403.95L392.95 404.57L392.84 405.17L392.71 405.77L392.55 406.36L392.37 406.94L392.17 407.51L391.94 408.07L391.7 408.61L391.44 409.15L391.15 409.67L390.85 410.18L390.52 410.68L390.18 411.17L389.82 411.64L389.45 412.09L389.05 412.53L388.64 412.96L388.22 413.37L387.78 413.76L387.32 414.14L386.85 414.5L386.36 414.84L385.87 415.16L385.35 415.47L384.83 415.75L384.29 416.02L383.75 416.26L383.19 416.48L382.62 416.69L382.04 416.87L381.45 417.02L380.85 417.16L380.25 417.27L379.63 417.36L379.01 417.42L378.38 417.46L377.75 417.47L262.26 417.47L261.62 417.46L260.99 417.42L260.37 417.36L259.76 417.27L259.15 417.16L258.55 417.02L257.96 416.87L257.39 416.69L256.82 416.48L256.26 416.26L255.71 416.02L255.18 415.75L254.65 415.47L254.14 415.16L253.64 414.84L253.16 414.5L252.69 414.14L252.23 413.76L251.79 413.37L251.36 412.96L250.95 412.53L250.56 412.09L250.18 411.64L249.82 411.17L249.48 410.68L249.16 410.18L248.85 409.67L248.57 409.15L248.31 408.61L248.06 408.07L247.84 407.51L247.64 406.94L247.46 406.36L247.3 405.77L247.16 405.17L247.05 404.57L246.96 403.95L246.9 403.33L246.86 402.71L246.85 402.07L246.85 355.18L246.84 354.55L246.8 353.92L246.74 353.3L246.65 352.68L246.54 352.08L246.4 351.48L246.25 350.89L246.07 350.31L245.86 349.74L245.64 349.19L245.4 348.64L245.13 348.1L244.85 347.58L244.54 347.07L244.22 346.57L243.88 346.09L243.52 345.61L243.14 345.16L242.75 344.72L242.34 344.29L241.91 343.88L241.47 343.49L241.02 343.11L240.55 342.75L240.06 342.41L239.56 342.09L239.05 341.78L238.53 341.5L237.99 341.23L237.44 340.99L236.89 340.77L236.32 340.57L235.74 340.39L235.15 340.23L234.55 340.09L233.95 339.98L233.33 339.89L232.71 339.83L232.09 339.79L231.45 339.78L187.88 339.78L187.49 339.78L187.11 339.76L186.73 339.74L186.34 339.7L185.96 339.66L185.59 339.61L185.21 339.55L184.84 339.47L184.47 339.39L184.1 339.31L183.73 339.21L183.37 339.1L183.01 338.99L182.66 338.86L182.31 338.73L181.96 338.59L181.61 338.44L181.27 338.28L180.93 338.11L180.6 337.94L180.27 337.76L179.95 337.57L179.63 337.37L179.31 337.16L179 336.95L178.7 336.73L178.4 336.5L178.1 336.27L177.81 336.02L177.53 335.77L177.25 335.51L176.97 335.25L176.71 334.98L176.45 334.7L176.19 334.41L175.94 334.12L175.7 333.82L175.47 333.52L175.24 333.21L175.02 332.89L173.64 330.83L172.3 328.75L170.98 326.65L169.69 324.53L168.43 322.39L167.19 320.23L165.99 318.05L164.82 315.86L163.68 313.64L162.57 311.41L161.49 309.16L160.44 306.89L159.43 304.6L158.44 302.3L157.49 299.98L156.57 297.64L155.68 295.29L154.83 292.92L154.01 290.54L153.22 288.14L152.47 285.72L151.75 283.29L151.06 280.85L150.41 278.39L149.8 275.92L149.22 273.43L148.67 270.93L148.16 268.42L147.69 265.89L147.25 263.35L146.85 260.8L146.49 258.24L146.16 255.67L145.87 253.08L145.62 250.48L145.41 247.88L145.23 245.26L145.1 242.63L145 239.99L144.94 237.34L144.99 230.09L145.33 222.92L145.96 215.81L146.88 208.79L148.08 201.85L149.55 195L151.29 188.25L153.29 181.6L155.55 175.07L158.06 168.65L160.81 162.35L163.79 156.17L167.02 150.13L170.46 144.24L174.13 138.48L178.01 132.88L182.1 127.44L186.39 122.16L190.88 117.05L195.56 112.12L200.42 107.36L205.47 102.8L210.68 98.43L216.06 94.26L221.6 90.3L227.3 86.54L233.15 83.01L239.14 79.7L245.26 76.62L251.52 73.78L257.9 71.18L264.41 68.82L271.02 66.72L277.75 64.89L284.57 63.31L291.49 62.01L298.5 60.99L305.59 60.26L312.77 59.81L320.01 59.66L327.23 59.8L334.37 60.24Z" id="a71H5x5Pr"></path><path d="M320.96 59.66L321.44 59.67L321.91 59.67L322.39 59.68L322.87 59.68L323.34 59.69L323.81 59.7L324.29 59.71L324.76 59.73L325.24 59.74L325.71 59.75L326.18 59.77L326.66 59.79L327.13 59.81L327.6 59.83L328.07 59.85L328.54 59.87L329.01 59.89L329.49 59.92L329.96 59.94L330.43 59.97L330.9 60L331.37 60.03L331.83 60.06L332.3 60.09L332.77 60.13L333.24 60.16L333.71 60.2L334.18 60.23L334.64 60.27L335.11 60.31L335.58 60.35L336.04 60.39L336.51 60.44L336.97 60.48L337.44 60.53L337.9 60.57L338.37 60.62L338.83 60.67L332.24 61.51L325.73 62.6L319.3 63.92L312.95 65.49L306.7 67.28L300.54 69.3L294.48 71.54L288.52 74L282.68 76.67L276.95 79.54L271.33 82.62L265.85 85.89L260.49 89.36L255.27 93.01L250.18 96.84L245.24 100.86L240.45 105.04L235.81 109.39L231.33 113.9L227.02 118.57L222.87 123.39L218.89 128.35L215.1 133.46L211.48 138.71L208.05 144.09L204.82 149.6L201.78 155.23L198.95 160.98L196.32 166.84L193.9 172.81L191.7 178.88L189.72 185.05L187.97 191.31L186.45 197.66L185.16 204.09L184.11 210.61L183.32 217.19L182.77 223.85L182.47 230.56L182.44 237.34L182.5 239.99L182.6 242.63L182.73 245.26L182.91 247.88L183.12 250.48L183.37 253.08L183.66 255.67L183.99 258.24L184.35 260.8L184.75 263.35L185.19 265.89L185.66 268.42L186.17 270.93L186.72 273.43L187.3 275.92L187.91 278.39L188.56 280.85L189.25 283.29L189.97 285.72L190.72 288.14L191.51 290.54L192.33 292.92L193.18 295.29L194.07 297.64L194.99 299.98L195.94 302.3L196.93 304.6L197.94 306.89L198.99 309.16L200.07 311.41L201.18 313.64L202.32 315.86L203.49 318.05L204.69 320.23L205.92 322.39L207.18 324.53L208.47 326.65L209.79 328.75L211.14 330.83L212.51 332.89L212.74 333.21L212.96 333.52L213.2 333.82L213.44 334.12L213.69 334.41L213.94 334.7L214.21 334.98L214.47 335.25L214.74 335.51L215.02 335.77L215.31 336.02L215.6 336.27L215.89 336.5L216.19 336.73L216.5 336.95L216.81 337.16L217.12 337.37L217.44 337.57L217.77 337.76L218.1 337.94L218.43 338.11L218.77 338.28L219.11 338.44L219.45 338.59L219.8 338.73L220.16 338.86L220.51 338.99L220.87 339.1L221.23 339.21L221.6 339.31L221.97 339.39L222.34 339.47L222.71 339.55L223.08 339.61L223.46 339.66L223.84 339.7L224.22 339.74L224.61 339.76L224.99 339.78L225.38 339.78L187.88 339.78L187.49 339.78L187.11 339.76L186.72 339.74L186.34 339.7L185.96 339.66L185.58 339.61L185.21 339.55L184.84 339.47L184.47 339.39L184.1 339.31L183.73 339.21L183.37 339.1L183.01 338.99L182.66 338.86L182.3 338.73L181.95 338.59L181.61 338.44L181.27 338.28L180.93 338.11L180.6 337.94L180.27 337.76L179.94 337.57L179.62 337.37L179.31 337.16L179 336.95L178.69 336.73L178.39 336.5L178.1 336.27L177.81 336.02L177.52 335.77L177.24 335.51L176.97 335.25L176.71 334.98L176.44 334.7L176.19 334.41L175.94 334.12L175.7 333.82L175.46 333.52L175.24 333.21L175.01 332.89L173.64 330.83L172.29 328.75L170.97 326.65L169.68 324.53L168.42 322.39L167.19 320.23L165.99 318.05L164.82 315.86L163.68 313.64L162.57 311.41L161.49 309.16L160.44 306.89L159.43 304.6L158.44 302.3L157.49 299.98L156.57 297.64L155.68 295.29L154.83 292.92L154.01 290.54L153.22 288.14L152.47 285.72L151.75 283.29L151.06 280.85L150.41 278.39L149.8 275.92L149.22 273.43L148.67 270.93L148.16 268.42L147.69 265.89L147.25 263.35L146.85 260.8L146.49 258.24L146.16 255.67L145.87 253.08L145.62 250.48L145.41 247.88L145.23 245.26L145.1 242.63L145 239.99L144.94 237.34L144.99 230.09L145.33 222.92L145.96 215.81L146.88 208.79L148.08 201.85L149.55 195L151.29 188.25L153.29 181.6L155.55 175.07L158.06 168.65L160.81 162.35L163.79 156.17L167.02 150.13L170.46 144.24L174.13 138.48L178.01 132.88L182.1 127.44L186.39 122.16L190.88 117.05L195.56 112.12L200.42 107.36L205.47 102.8L210.68 98.43L216.06 94.26L221.6 90.3L227.3 86.54L233.15 83.01L239.14 79.7L245.26 76.62L251.52 73.78L257.9 71.18L264.41 68.82L271.02 66.72L277.75 64.89L284.57 63.31L291.49 62.01L298.5 60.99L305.59 60.26L312.77 59.81L320.01 59.66L320.49 59.66L320.96 59.66Z" id="a3Jz9jGw6"></path><path d="M250.83 195.51L252.79 195.71L254.72 195.98L256.63 196.33L258.51 196.75L260.36 197.25L262.18 197.82L263.97 198.45L265.72 199.15L267.44 199.92L269.13 200.76L270.78 201.65L272.39 202.61L273.95 203.62L275.48 204.7L276.96 205.83L278.4 207.01L279.79 208.25L281.13 209.54L282.42 210.88L283.66 212.27L284.84 213.7L285.97 215.19L287.05 216.71L288.06 218.28L289.02 219.89L289.91 221.53L290.75 223.22L291.51 224.94L292.22 226.7L292.85 228.49L293.42 230.31L293.91 232.16L294.34 234.04L294.69 235.94L294.96 237.87L295.16 239.83L295.28 241.81L295.32 243.8L295.28 245.8L295.16 247.78L294.96 249.73L294.69 251.66L294.34 253.57L293.91 255.45L293.42 257.3L292.85 259.12L292.22 260.91L291.51 262.67L290.75 264.39L289.91 266.07L289.02 267.72L288.06 269.33L287.05 270.9L285.97 272.42L284.84 273.9L283.66 275.34L282.42 276.73L281.13 278.07L279.79 279.36L278.4 280.6L276.96 281.78L275.48 282.91L273.95 283.99L272.39 285L270.78 285.96L269.13 286.85L267.44 287.68L265.72 288.45L263.97 289.16L262.18 289.79L260.36 290.36L258.51 290.85L256.63 291.28L254.72 291.63L252.79 291.9L250.83 292.1L248.86 292.22L246.86 292.26L244.86 292.22L242.89 292.1L240.93 291.9L239 291.63L237.09 291.28L235.22 290.85L233.36 290.36L231.54 289.79L229.75 289.16L228 288.45L226.28 287.68L224.59 286.85L222.94 285.96L221.33 285L219.77 283.99L218.24 282.91L216.76 281.78L215.32 280.6L213.94 279.36L212.6 278.07L211.31 276.73L210.07 275.34L208.88 273.9L207.75 272.42L206.68 270.9L205.66 269.33L204.71 267.72L203.81 266.07L202.98 264.39L202.21 262.67L201.51 260.91L200.87 259.12L200.31 257.3L199.81 255.45L199.39 253.57L199.04 251.66L198.76 249.73L198.56 247.78L198.44 245.8L198.4 243.8L198.44 241.81L198.56 239.83L198.76 237.87L199.04 235.94L199.39 234.04L199.81 232.16L200.31 230.31L200.87 228.49L201.51 226.7L202.21 224.94L202.98 223.22L203.81 221.53L204.71 219.89L205.66 218.28L206.68 216.71L207.75 215.19L208.88 213.7L210.07 212.27L211.31 210.88L212.6 209.54L213.94 208.25L215.32 207.01L216.76 205.83L218.24 204.7L219.77 203.62L221.33 202.61L222.94 201.65L224.59 200.76L226.28 199.92L228 199.15L229.75 198.45L231.54 197.82L233.36 197.25L235.22 196.75L237.09 196.33L239 195.98L240.93 195.71L242.89 195.51L244.86 195.39L246.86 195.35L248.86 195.39L250.83 195.51Z" id="botLSWP1b"></path><path d="M397.15 195.51L399.11 195.71L401.04 195.98L402.94 196.33L404.82 196.75L406.67 197.25L408.5 197.82L410.28 198.45L412.04 199.15L413.76 199.92L415.45 200.76L417.1 201.65L418.7 202.61L420.27 203.62L421.8 204.7L423.28 205.83L424.71 207.01L426.1 208.25L427.44 209.54L428.73 210.88L429.97 212.27L431.16 213.7L432.29 215.19L433.36 216.71L434.38 218.28L435.33 219.89L436.23 221.53L437.06 223.22L437.83 224.94L438.53 226.7L439.17 228.49L439.73 230.31L440.23 232.16L440.65 234.04L441 235.94L441.28 237.87L441.48 239.83L441.6 241.81L441.64 243.8L441.6 245.8L441.48 247.78L441.28 249.73L441 251.66L440.65 253.57L440.23 255.45L439.73 257.3L439.17 259.12L438.53 260.91L437.83 262.67L437.06 264.39L436.23 266.07L435.33 267.72L434.38 269.33L433.36 270.9L432.29 272.42L431.16 273.9L429.97 275.34L428.73 276.73L427.44 278.07L426.1 279.36L424.71 280.6L423.28 281.78L421.8 282.91L420.27 283.99L418.7 285L417.1 285.96L415.45 286.85L413.76 287.68L412.04 288.45L410.28 289.16L408.5 289.79L406.67 290.36L404.82 290.85L402.94 291.28L401.04 291.63L399.11 291.9L397.15 292.1L395.18 292.22L393.18 292.26L391.18 292.22L389.2 292.1L387.25 291.9L385.32 291.63L383.41 291.28L381.53 290.85L379.68 290.36L377.86 289.79L376.07 289.16L374.32 288.45L372.6 287.68L370.91 286.85L369.26 285.96L367.65 285L366.09 283.99L364.56 282.91L363.08 281.78L361.64 280.6L360.25 279.36L358.91 278.07L357.62 276.73L356.39 275.34L355.2 273.9L354.07 272.42L353 270.9L351.98 269.33L351.03 267.72L350.13 266.07L349.3 264.39L348.53 262.67L347.83 260.91L347.19 259.12L346.63 257.3L346.13 255.45L345.71 253.57L345.36 251.66L345.08 249.73L344.88 247.78L344.76 245.8L344.72 243.8L344.76 241.81L344.88 239.83L345.08 237.87L345.36 235.94L345.71 234.04L346.13 232.16L346.63 230.31L347.19 228.49L347.83 226.7L348.53 224.94L349.3 223.22L350.13 221.53L351.03 219.89L351.98 218.28L353 216.71L354.07 215.19L355.2 213.7L356.39 212.27L357.62 210.88L358.91 209.54L360.25 208.25L361.64 207.01L363.08 205.83L364.56 204.7L366.09 203.62L367.65 202.61L369.26 201.65L370.91 200.76L372.6 199.92L374.32 199.15L376.07 198.45L377.86 197.82L379.68 197.25L381.53 196.75L383.41 196.33L385.32 195.98L387.25 195.71L389.2 195.51L391.18 195.39L393.18 195.35L395.18 195.39L397.15 195.51Z" id="c1BRWVseg"></path><path d="M279.6 339.82L280.02 339.87L280.43 339.93L280.84 340.01L281.24 340.12L281.63 340.23L282.02 340.37L282.4 340.52L282.77 340.68L283.13 340.86L283.48 341.06L283.82 341.27L284.16 341.5L284.48 341.73L284.79 341.99L285.09 342.25L285.38 342.53L285.66 342.82L285.92 343.12L286.17 343.43L286.41 343.75L286.63 344.08L286.84 344.42L287.04 344.78L287.22 345.14L287.39 345.51L287.54 345.88L287.67 346.27L287.79 346.66L287.89 347.06L287.97 347.47L288.04 347.88L288.09 348.3L288.12 348.73L288.13 349.16L288.13 417.47L269.38 417.47L269.38 349.16L269.38 348.73L269.41 348.3L269.46 347.88L269.53 347.47L269.61 347.06L269.71 346.66L269.83 346.27L269.96 345.88L270.11 345.51L270.28 345.14L270.46 344.78L270.66 344.42L270.87 344.08L271.09 343.75L271.33 343.43L271.58 343.12L271.84 342.82L272.12 342.53L272.41 342.25L272.71 341.99L273.02 341.73L273.34 341.5L273.68 341.27L274.02 341.06L274.37 340.86L274.73 340.68L275.1 340.52L275.48 340.37L275.87 340.23L276.26 340.12L276.66 340.01L277.07 339.93L277.48 339.87L277.9 339.82L278.32 339.79L278.75 339.78L279.18 339.79L279.6 339.82Z" id="c5okIBkLNx"></path><path d="M320.85 339.82L321.27 339.87L321.68 339.93L322.09 340.01L322.49 340.12L322.88 340.23L323.27 340.37L323.65 340.52L324.02 340.68L324.38 340.86L324.73 341.06L325.07 341.27L325.41 341.5L325.73 341.73L326.04 341.99L326.34 342.25L326.63 342.53L326.91 342.82L327.17 343.12L327.42 343.43L327.66 343.75L327.88 344.08L328.09 344.42L328.29 344.78L328.47 345.14L328.64 345.51L328.79 345.88L328.92 346.27L329.04 346.66L329.14 347.06L329.22 347.47L329.29 347.88L329.34 348.3L329.37 348.73L329.38 349.16L329.38 417.47L310.63 417.47L310.63 349.16L310.63 348.73L310.66 348.3L310.71 347.88L310.78 347.47L310.86 347.06L310.96 346.66L311.08 346.27L311.21 345.88L311.36 345.51L311.53 345.14L311.71 344.78L311.91 344.42L312.12 344.08L312.34 343.75L312.58 343.43L312.83 343.12L313.09 342.82L313.37 342.53L313.66 342.25L313.96 341.99L314.27 341.73L314.59 341.5L314.93 341.27L315.27 341.06L315.62 340.86L315.98 340.68L316.35 340.52L316.73 340.37L317.12 340.23L317.51 340.12L317.91 340.01L318.32 339.93L318.73 339.87L319.15 339.82L319.57 339.79L320 339.78L320.43 339.79L320.85 339.82Z" id="cEeWnnm9w"></path><path d="M362.1 339.82L362.52 339.87L362.93 339.93L363.34 340.01L363.74 340.12L364.13 340.23L364.52 340.37L364.9 340.52L365.27 340.68L365.63 340.86L365.98 341.06L366.32 341.27L366.66 341.5L366.98 341.73L367.29 341.99L367.59 342.25L367.88 342.53L368.16 342.82L368.42 343.12L368.67 343.43L368.91 343.75L369.13 344.08L369.34 344.42L369.54 344.78L369.72 345.14L369.89 345.51L370.04 345.88L370.17 346.27L370.29 346.66L370.39 347.06L370.47 347.47L370.54 347.88L370.59 348.3L370.62 348.73L370.63 349.16L370.63 417.47L351.88 417.47L351.88 349.16L351.88 348.73L351.91 348.3L351.96 347.88L352.03 347.47L352.11 347.06L352.21 346.66L352.33 346.27L352.46 345.88L352.61 345.51L352.78 345.14L352.96 344.78L353.16 344.42L353.37 344.08L353.59 343.75L353.83 343.43L354.08 343.12L354.34 342.82L354.62 342.53L354.91 342.25L355.21 341.99L355.52 341.73L355.84 341.5L356.18 341.27L356.52 341.06L356.87 340.86L357.23 340.68L357.6 340.52L357.98 340.37L358.37 340.23L358.76 340.12L359.16 340.01L359.57 339.93L359.98 339.87L360.4 339.82L360.82 339.79L361.25 339.78L361.68 339.79L362.1 339.82Z" id="a3ZttcdlHC"></path></defs><g><g><g><use xlink:href="#b26su2PdzN" opacity="1" fill="#e2e6e7" fill-opacity="1"></use><g><use xlink:href="#b26su2PdzN" opacity="1" fill-opacity="0" stroke="#000000" stroke-width="1" stroke-opacity="0"></use></g></g><g><use xlink:href="#afvQkuHp" opacity="1" fill="#2fe04f" fill-opacity="1"></use><g><use xlink:href="#afvQkuHp" opacity="1" fill-opacity="0" stroke="#000000" stroke-width="1" stroke-opacity="0"></use></g></g><g><use xlink:href="#a1eBOmkZhe" opacity="1" fill="#2e3b43" fill-opacity="1"></use><g><use xlink:href="#a1eBOmkZhe" opacity="1" fill-opacity="0" stroke="#000000" stroke-width="1" stroke-opacity="0"></use></g></g><g><use xlink:href="#epnffUfvM" opacity="1" fill="#2fe04f" fill-opacity="1"></use><g><use xlink:href="#epnffUfvM" opacity="1" fill-opacity="0" stroke="#000000" stroke-width="1" stroke-opacity="0"></use></g></g><g><use xlink:href="#b5LVxNTGJb" opacity="1" fill="#2d5033" fill-opacity="1"></use><g><use xlink:href="#b5LVxNTGJb" opacity="1" fill-opacity="0" stroke="#000000" stroke-width="1" stroke-opacity="0"></use></g></g><g><use xlink:href="#a71H5x5Pr" opacity="1" fill="#fbfcf7" fill-opacity="1"></use><g><use xlink:href="#a71H5x5Pr" opacity="1" fill-opacity="0" stroke="#000000" stroke-width="1" stroke-opacity="0"></use></g></g><g><use xlink:href="#a3Jz9jGw6" opacity="1" fill="#e2e6e7" fill-opacity="1"></use><g><use xlink:href="#a3Jz9jGw6" opacity="1" fill-opacity="0" stroke="#000000" stroke-width="1" stroke-opacity="0"></use></g></g><g><use xlink:href="#botLSWP1b" opacity="1" fill="#3e4852" fill-opacity="1"></use><g><use xlink:href="#botLSWP1b" opacity="1" fill-opacity="0" stroke="#000000" stroke-width="1" stroke-opacity="0"></use></g></g><g><use xlink:href="#c1BRWVseg" opacity="1" fill="#3e4852" fill-opacity="1"></use><g><use xlink:href="#c1BRWVseg" opacity="1" fill-opacity="0" stroke="#000000" stroke-width="1" stroke-opacity="0"></use></g></g><g><use xlink:href="#c5okIBkLNx" opacity="1" fill="#c1ccd0" fill-opacity="1"></use><g><use xlink:href="#c5okIBkLNx" opacity="1" fill-opacity="0" stroke="#000000" stroke-width="1" stroke-opacity="0"></use></g></g><g><use xlink:href="#cEeWnnm9w" opacity="1" fill="#c1ccd0" fill-opacity="1"></use><g><use xlink:href="#cEeWnnm9w" opacity="1" fill-opacity="0" stroke="#000000" stroke-width="1" stroke-opacity="0"></use></g></g><g><use xlink:href="#a3ZttcdlHC" opacity="1" fill="#c1ccd0" fill-opacity="1"></use><g><use xlink:href="#a3ZttcdlHC" opacity="1" fill-opacity="0" stroke="#000000" stroke-width="1" stroke-opacity="0"></use></g></g></g></g></svg>